# xmcd
#
# Track frame offsets:
#	182
#	19547
#	34160
#	45035
#	63007
#	81987
#	99272
#	114647
#	134077
#	150282
#	164105
#	177460
#	196170
#	213942
#	227600
#	247112
#	262752
#
# Disc length: 3675 seconds
#
# Revision: 0
# Processed by: cddbd v1.5.2PL0 Copyright (c) Steve Scherf et al.
# Submitted via: EasyCDDAExtractor 15.2.5.1
#
DISCID=d60e5911
DTITLE=Various Artist - Total Country
DYEAR=1900
DGENRE=Country
TTITLE0=Trisha Yearwood - Walkaway Joe
TTITLE1=The Mavericks - O What A Thrill
TTITLE2=Tracy Byrd - The First Step
TTITLE3=Vince Gill - I Still Believe In You
TTITLE4=Nanci Griffith - From A Distance
TTITLE5=Marty Stuart - Love And Luck
TTITLE6=Mark Collie - Trouble's Coming Like A Train
TTITLE7=Reba Mcentire and Linda Davis - Does He Love You
TTITLE8=The Wheel - There Goes My Heart Again
TTITLE9=Terry Mcbride and The Ride - No More Crying
TTITLE10=Kelly Willis - Get Real
TTITLE11=Rodney Crowell - Let The Picture Paint Itself
TTITLE12=Trisha Yearwood - The Song Remembers When
TTITLE13=Davis Lee Murphy - Just Once
TTITLE14=Vince Gill - Whenever You Come Around
TTITLE15=Reba Mcentire - Why Haven't I Heard From You
TTITLE16=Tanya Self - The Dumaresq
EXTD=
EXTT0=
EXTT1=
EXTT2=
EXTT3=
EXTT4=
EXTT5=
EXTT6=
EXTT7=
EXTT8=
EXTT9=
EXTT10=
EXTT11=
EXTT12=
EXTT13=
EXTT14=
EXTT15=
EXTT16=
PLAYORDER=
